<?xml version="1.0" encoding="UTF-8"?>
<svg width="24" height="24" xmlns="http://www.w3.org/2000/svg">

 <g>
  <title>Layer 1</title>
  <path fill="#ffffff" id="svg_1" d="m19.5,5l-10,0c-1.266,0 -2.834,0.807 -3.57,1.837l-2.61,3.653c-0.642,0.898 -1.182,1.654 -1.199,1.679c-0.121,0.175 -0.122,0.492001 0.003,0.664001c0.023,0.033 0.555,0.776999 1.188,1.664l2.619,3.667c0.735,1.029001 2.302,1.836 3.569,1.836l10,0c1.379,0 2.5,-1.122 2.5,-2.5l0,-10c0,-1.378 -1.121,-2.5 -2.5,-2.5zm-2.292999,9.793c0.391001,0.391 0.391001,1.023 0,1.414001c-0.195002,0.195 -0.451,0.292999 -0.707001,0.292999s-0.512,-0.098 -0.707,-0.292999l-2.293,-2.293001l-2.293,2.293001c-0.195,0.195 -0.451,0.292999 -0.707,0.292999s-0.512,-0.098 -0.707,-0.292999c-0.391,-0.391001 -0.391,-1.023001 0,-1.414001l2.293,-2.293l-2.293,-2.293c-0.391,-0.391 -0.391,-1.023 0,-1.414s1.023,-0.391 1.414,0l2.293,2.293l2.293,-2.293c0.391,-0.391 1.023,-0.391 1.414001,0s0.390999,1.023 0,1.414l-2.293001,2.293l2.293001,2.293z"/>
 </g>
</svg>